<?xml version="1.0" encoding="utf-8"?>
<!-- Generator: Adobe Illustrator 13.0.0, SVG Export Plug-In . SVG Version: 6.00 Build 14948)  -->
<!DOCTYPE svg PUBLIC "-//W3C//DTD SVG 1.1//EN" "http://www.w3.org/Graphics/SVG/1.1/DTD/svg11.dtd">
<svg version="1.1" id="Layer_1" xmlns="http://www.w3.org/2000/svg" xmlns:xlink="http://www.w3.org/1999/xlink" x="0px" y="0px"
	 width="147.905px" height="284.448px" viewBox="0 0 147.905 284.448" enable-background="new 0 0 147.905 284.448"
	 xml:space="preserve">
<linearGradient id="SVGID_1_" gradientUnits="userSpaceOnUse" x1="259.9229" y1="696.6494" x2="259.9229" y2="865.8428" gradientTransform="matrix(1.3867 0 0 1.3867 -287.8667 -917.9921)">
	<stop  offset="0" style="stop-color:#2E8392"/>
	<stop  offset="1" style="stop-color:#2E0092"/>
</linearGradient>
<path fill="url(#SVGID_1_)" d="M78.341,272.422c-3.176,13.668-8.367,13.668-11.542,0L20.475,72.906
	c-3.173-13.668,5.711-24.852,19.743-24.852h64.701c14.033,0,22.916,11.184,19.744,24.852L78.341,272.422z"/>
<path fill="#FFFFFF" d="M76.749,255.938c-2.687,11.562-7.079,11.562-9.766,0L27.794,87.144
	c-2.685-11.564,4.831-21.025,16.704-21.025h54.737c11.871,0,19.386,9.461,16.703,21.025L76.749,255.938z"/>
<linearGradient id="SVGID_2_" gradientUnits="userSpaceOnUse" x1="259.9219" y1="849.0654" x2="259.9219" y2="713.4297" gradientTransform="matrix(1.3867 0 0 1.3867 -287.8667 -917.9921)">
	<stop  offset="0" style="stop-color:#2E8392"/>
	<stop  offset="1" style="stop-color:#2E0092"/>
</linearGradient>
<path fill="url(#SVGID_2_)" d="M77.196,251.188c-2.546,10.959-6.709,10.959-9.252,0L30.808,91.245
	c-2.544-10.958,4.578-19.924,15.827-19.924h51.868c11.249,0,18.371,8.967,15.829,19.924L77.196,251.188z"/>
<linearGradient id="SVGID_3_" gradientUnits="userSpaceOnUse" x1="261.0449" y1="768.8145" x2="261.0449" y2="663.5898" gradientTransform="matrix(1.3867 0 0 1.3867 -287.8667 -917.9921)">
	<stop  offset="0" style="stop-color:#2E8392"/>
	<stop  offset="0.9286" style="stop-color:#2E0092"/>
</linearGradient>
<circle fill="url(#SVGID_3_)" stroke="#A3A3A3" cx="74.126" cy="75.165" r="72.957"/>
<path fill="#FFFFFF" d="M140.294,74.462c0,37.32-30.256,67.575-67.573,67.575c-37.32,0-67.573-30.254-67.573-67.575
	C5.147,37.518,35.773,6.891,72.72,6.891C110.038,6.891,140.294,37.144,140.294,74.462z"/>
<linearGradient id="SVGID_4_" gradientUnits="userSpaceOnUse" x1="261.0439" y1="763.502" x2="261.0439" y2="668.9033" gradientTransform="matrix(1.3867 0 0 1.3867 -287.8667 -917.9921)">
	<stop  offset="0" style="stop-color:#2E0092"/>
	<stop  offset="1" style="stop-color:#2E8392"/>
</linearGradient>
<circle fill="url(#SVGID_4_)" cx="74.126" cy="75.166" r="65.59"/>
</svg>
